<svg width="126" height="176" viewBox="0 0 126 176" fill="none" xmlns="http://www.w3.org/2000/svg">
<path fill-rule="evenodd" clip-rule="evenodd" d="M0 9.75001C0 4.36523 4.36522 0 9.75 0H116.25C121.635 0 126 4.36522 126 9.75V94.5023C126 99.8871 121.635 104.252 116.25 104.252H110.25L92.5438 130.484C91.6334 131.832 89.5281 130.97 89.8258 129.37L94.5 104.252H63H9.75C4.36522 104.252 0 99.8871 0 94.5023V9.75001Z" fill="white"/>
<path d="M40.5 22.1732H85.5" stroke="#21CBAA" stroke-width="3.75" stroke-linecap="round"/>
<path d="M63.375 21.7842L63.375 87.9144" stroke="#21CBAA" stroke-width="3.75" stroke-linecap="round"/>
<path d="M24.6786 150.61H17.4786V148H34.8486V150.61H27.6486V169H24.6786V150.61ZM39.3517 155.77C39.8517 154.85 40.5917 154.15 41.5717 153.67C42.5517 153.19 43.7417 152.95 45.1417 152.95V155.74C44.9817 155.72 44.7617 155.71 44.4817 155.71C42.9217 155.71 41.6917 156.18 40.7917 157.12C39.9117 158.04 39.4717 159.36 39.4717 161.08V169H36.5917V153.1H39.3517V155.77ZM53.7284 152.95C55.9284 152.95 57.6084 153.49 58.7684 154.57C59.9484 155.65 60.5384 157.26 60.5384 159.4V169H57.8084V166.9C57.3284 167.64 56.6384 168.21 55.7384 168.61C54.8584 168.99 53.8084 169.18 52.5884 169.18C50.8084 169.18 49.3784 168.75 48.2984 167.89C47.2384 167.03 46.7084 165.9 46.7084 164.5C46.7084 163.1 47.2184 161.98 48.2384 161.14C49.2584 160.28 50.8784 159.85 53.0984 159.85H57.6584V159.28C57.6584 158.04 57.2984 157.09 56.5784 156.43C55.8584 155.77 54.7984 155.44 53.3984 155.44C52.4584 155.44 51.5384 155.6 50.6384 155.92C49.7384 156.22 48.9784 156.63 48.3584 157.15L47.1584 154.99C47.9784 154.33 48.9584 153.83 50.0984 153.49C51.2384 153.13 52.4484 152.95 53.7284 152.95ZM53.0684 166.96C54.1684 166.96 55.1184 166.72 55.9184 166.24C56.7184 165.74 57.2984 165.04 57.6584 164.14V161.92H53.2184C50.7784 161.92 49.5584 162.74 49.5584 164.38C49.5584 165.18 49.8684 165.81 50.4884 166.27C51.1084 166.73 51.9684 166.96 53.0684 166.96ZM80.2325 146.74V169H77.4725V166.48C76.8325 167.36 76.0225 168.03 75.0425 168.49C74.0625 168.95 72.9825 169.18 71.8025 169.18C70.2625 169.18 68.8825 168.84 67.6625 168.16C66.4425 167.48 65.4825 166.53 64.7825 165.31C64.1025 164.07 63.7625 162.65 63.7625 161.05C63.7625 159.45 64.1025 158.04 64.7825 156.82C65.4825 155.6 66.4425 154.65 67.6625 153.97C68.8825 153.29 70.2625 152.95 71.8025 152.95C72.9425 152.95 73.9925 153.17 74.9525 153.61C75.9125 154.03 76.7125 154.66 77.3525 155.5V146.74H80.2325ZM72.0425 166.66C73.0425 166.66 73.9525 166.43 74.7725 165.97C75.5925 165.49 76.2325 164.83 76.6925 163.99C77.1525 163.13 77.3825 162.15 77.3825 161.05C77.3825 159.95 77.1525 158.98 76.6925 158.14C76.2325 157.28 75.5925 156.62 74.7725 156.16C73.9525 155.7 73.0425 155.47 72.0425 155.47C71.0225 155.47 70.1025 155.7 69.2825 156.16C68.4825 156.62 67.8425 157.28 67.3625 158.14C66.9025 158.98 66.6725 159.95 66.6725 161.05C66.6725 162.15 66.9025 163.13 67.3625 163.99C67.8425 164.83 68.4825 165.49 69.2825 165.97C70.1025 166.43 71.0225 166.66 72.0425 166.66ZM84.9582 146.74H87.8382V169H84.9582V146.74ZM106.684 153.1L98.9736 170.59C98.2936 172.21 97.4936 173.35 96.5736 174.01C95.6736 174.67 94.5836 175 93.3036 175C92.5236 175 91.7636 174.87 91.0236 174.61C90.3036 174.37 89.7036 174.01 89.2236 173.53L90.4536 171.37C91.2736 172.15 92.2236 172.54 93.3036 172.54C94.0036 172.54 94.5836 172.35 95.0436 171.97C95.5236 171.61 95.9536 170.98 96.3336 170.08L96.8436 168.97L89.8236 153.1H92.8236L98.3736 165.82L103.864 153.1H106.684Z" fill="white"/>
</svg>
